<svg xmlns="http://www.w3.org/2000/svg" xmlns:xlink="http://www.w3.org/1999/xlink" version="1.1" id="Layer_1" x="0px" y="0px" width="100px" height="93.922px" viewBox="0 0 100 93.922" enable-background="new 0 0 100 93.922" xml:space="preserve">
<g>
	<polygon points="17.334,47.028 20.988,52.443 24.643,93.922 37.548,93.922 41.203,52.443 41.243,52.443 44.898,47.028    44.898,23.116 17.334,23.116  "/>
	<circle cx="31.116" cy="9.928" r="9.928"/>
</g>
<g>
	<polygon points="81.938,63.193 84.333,66.742 86.727,93.922 95.184,93.922 97.58,66.742 97.605,66.742 100,63.193 100,47.524    81.938,47.524  "/>
	<circle cx="90.969" cy="38.883" r="6.506"/>
</g>
<g>
	<circle cx="62.714" cy="10.659" r="9.929"/>
	<polygon points="72.801,50.616 72.841,50.616 76.496,45.201 72.841,23.848 52.586,23.848 48.932,45.201 52.586,50.616    47.105,71.021 54.385,71.021 56.241,93.922 69.147,93.922 71.003,71.021 78.284,71.021  "/>
</g>
<g>
	<circle cx="7.946" cy="51.536" r="5.054"/>
	<polygon points="13.081,71.876 13.102,71.876 14.962,69.12 13.102,58.249 2.791,58.249 0.93,69.12 2.791,71.876 0,82.264    3.706,82.264 4.651,93.922 11.221,93.922 12.166,82.264 15.872,82.264  "/>
</g>
</svg>