<svg xmlns="http://www.w3.org/2000/svg" xmlns:xlink="http://www.w3.org/1999/xlink" version="1.1" id="Layer_1" x="0px" y="0px" width="100px" height="93.841px" viewBox="0 0 100 93.841" enable-background="new 0 0 100 93.841" xml:space="preserve">
<g>
	<g>
		<path d="M38.641,91.851H25.719l-3.445-39.088l-3.428-5.082V24.714h26.707v22.967l-3.473,5.146L38.641,91.851z M26.575,90.915    h11.209l3.417-38.781h0.218l3.198-4.738V25.649H19.78v21.747l3.404,5.044L26.575,90.915z"/>
	</g>
	<g>
		<path d="M32.199,22.601c-5.376,0-9.75-4.374-9.75-9.75c0-5.376,4.374-9.75,9.75-9.75c5.376,0,9.75,4.374,9.75,9.75    C41.949,18.227,37.576,22.601,32.199,22.601z M32.199,4.036c-4.861,0-8.815,3.954-8.815,8.814s3.954,8.815,8.815,8.815    c4.86,0,8.815-3.955,8.815-8.815S37.059,4.036,32.199,4.036z"/>
	</g>
	<g>
		<g>
			<path d="M92.529,91.851h-8.764L81.5,66.132l-2.252-3.336V47.534h17.822v15.262l-2.277,3.377L92.529,91.851z M84.622,90.915h7.051     l2.241-25.412h0.203l2.02-2.993V48.47H80.183v14.04l2.227,3.299l0.012,0.121L84.622,90.915z"/>
		</g>
		<g>
			<path d="M88.16,46.474c-3.612,0-6.551-2.939-6.551-6.551c0-3.612,2.938-6.55,6.551-6.55c3.611,0,6.551,2.938,6.551,6.55     C94.71,43.535,91.771,46.474,88.16,46.474z M88.16,34.307c-3.097,0-5.616,2.52-5.616,5.616c0,3.097,2.52,5.616,5.616,5.616     s5.615-2.519,5.615-5.616C93.775,36.827,91.256,34.307,88.16,34.307z"/>
		</g>
	</g>
	<g>
		<g>
			<path d="M61.743,23.285c-5.377,0-9.752-4.374-9.752-9.75s4.375-9.751,9.752-9.751c5.376,0,9.75,4.375,9.75,9.751     S67.119,23.285,61.743,23.285z M61.743,4.719c-4.862,0-8.816,3.955-8.816,8.816c0,4.861,3.954,8.815,8.816,8.815     c4.86,0,8.815-3.955,8.815-8.815C70.558,8.673,66.603,4.719,61.743,4.719z"/>
		</g>
		<g>
			<path d="M68.187,91.851H55.259l-1.736-21.411h-6.984l5.228-19.462l-3.402-5.042l3.515-20.538h19.727l3.516,20.538l-3.43,5.082     l5.219,19.422h-6.986L68.187,91.851z M56.122,90.915h11.203l1.736-21.411h6.629l-5.127-19.078h0.399l3.173-4.701l-3.319-19.392     H52.667l-3.318,19.392l3.431,5.083l-5.022,18.696h6.628L56.122,90.915z"/>
		</g>
	</g>
	<g>
		<g>
			<path d="M10.536,56.946c-2.864,0-5.192-2.33-5.192-5.192c0-2.863,2.329-5.193,5.192-5.193c2.863,0,5.193,2.33,5.193,5.193     C15.729,54.616,13.399,56.946,10.536,56.946z M10.536,47.495c-2.348,0-4.258,1.911-4.258,4.259c0,2.347,1.91,4.258,4.258,4.258     s4.258-1.911,4.258-4.258C14.793,49.406,12.883,47.495,10.536,47.495z"/>
		</g>
		<g>
			<path d="M14.029,91.851H7.024l-0.883-10.9H2.497l2.712-10.095L3.483,68.3l1.838-10.738h10.43L17.588,68.3l-1.739,2.576     l2.707,10.074h-3.644L14.029,91.851z M7.886,90.915h5.281l0.884-10.9h3.286l-2.609-9.712h0.381l1.495-2.215l-1.641-9.591H6.11     l-1.642,9.591l1.754,2.598l-2.507,9.329h3.287L7.886,90.915z"/>
		</g>
	</g>
</g>
</svg>