<?xml version="1.0" encoding="utf-8"?>
<!-- Generator: Adobe Illustrator 18.0.0, SVG Export Plug-In . SVG Version: 6.00 Build 0)  -->
<!DOCTYPE svg PUBLIC "-//W3C//DTD SVG 1.1//EN" "http://www.w3.org/Graphics/SVG/1.1/DTD/svg11.dtd">
<svg version="1.1" id="Layer_1" xmlns="http://www.w3.org/2000/svg" xmlns:xlink="http://www.w3.org/1999/xlink" x="0px" y="0px"
	 viewBox="0 0 100 100" enable-background="new 0 0 100 100" xml:space="preserve">
<g>
	<path d="M45.3,79c0,0,4.9-19.1-5.4-29C29.6,40,21.5,34.9,18.2,35.3c-3.6,0.4,5,7,6.2,13c-7.3-3.1-11.6-8.1-13.7-14
		C8.5,28.4,2.9,18.2,0.4,21.7c-1.5,2.1,1.6,2.6,2.7,10.1C4.2,39.3,7.7,54.3,22,59.8C36.3,65.4,45.9,75.5,45.3,79z"/>
	<path d="M54.7,79c0,0-4.9-19.1,5.4-29c10.3-10,18.4-15.1,21.7-14.6c3.6,0.4-5,7-6.2,13c7.3-3.1,11.6-8.1,13.7-14
		c2.1-5.9,7.8-16.1,10.3-12.7c1.5,2.1-1.6,2.6-2.7,10.1c-1.1,7.5-4.6,22.5-18.9,28.1C63.8,65.4,54.1,75.5,54.7,79z"/>
</g>
<path fill="#FFFFFF" stroke="#000000" stroke-width="4" stroke-miterlimit="10" d="M45.3,79c0,0,4.5-19.7-5.4-29
	S22.2,34.9,18.2,35.3s5,6.7,6.2,13c0,0-10.4-3.9-13.7-14s-8.4-15-10.3-12.7s1.5,1.3,2.7,10.1c0,0,2.6,22.3,18.9,28.1
	S45.3,79,45.3,79z"/>
<path fill="#FFFFFF" stroke="#000000" stroke-width="4" stroke-miterlimit="10" d="M54.7,79c0,0-4.5-19.7,5.4-29
	s17.7-15.1,21.7-14.6s-5,6.7-6.2,13c0,0,10.4-3.9,13.7-14s8.4-15,10.3-12.7c1.8,2.3-1.5,1.3-2.7,10.1c0,0-2.6,22.3-18.9,28.1
	S54.7,79,54.7,79z"/>
</svg>
