<?xml version="1.0" encoding="utf-8"?>
<!-- Generator: Adobe Illustrator 18.0.0, SVG Export Plug-In . SVG Version: 6.00 Build 0)  -->
<!DOCTYPE svg PUBLIC "-//W3C//DTD SVG 1.1//EN" "http://www.w3.org/Graphics/SVG/1.1/DTD/svg11.dtd">
<svg version="1.1" id="Juggler" xmlns="http://www.w3.org/2000/svg" xmlns:xlink="http://www.w3.org/1999/xlink" x="0px" y="0px"
	 viewBox="0 0 100 100" enable-background="new 0 0 100 100" xml:space="preserve">
<path id="Head" display="none" d="M49,51.3c7.2,0,13.1-5.9,13.1-13.1c0-7.2-5.9-13.1-13.1-13.1c-7.2,0-13.1,5.9-13.1,13.1
	C35.8,45.4,41.7,51.3,49,51.3L49,51.3z"/>
<path id="Torso" display="none" d="M87.3,67.7c-3.2-1-6.5,0.8-7.5,3.9l-1.1,3.6L73.1,60c-0.9-2.4-3.1-4-5.6-4H32.9
	c-2.1,0-4,1.1-5.1,2.8l-8.3,13.3l-1.4-10.9c-0.4-3.3-3.4-5.6-6.7-5.2c-3.3,0.4-5.6,3.4-5.2,6.7l3.5,26c0.3,2.5,2.2,4.6,4.7,5.1
	c2.5,0.5,5-0.5,6.4-2.7L30,76.3V96h36.9V78.1L73.4,96c0.9,2.4,3.1,4,5.6,4c0,0,0.1,0,0.1,0c2.6-0.1,4.8-1.7,5.6-4.2l6.4-20.6
	C92.2,72.1,90.4,68.7,87.3,67.7z"/>
<path id="Object_2_" display="none" d="M88.2,38.8c3.3,0,5.9,2.7,5.9,5.9s-2.7,5.9-5.9,5.9c-3.3,0-5.9-2.7-5.9-5.9
	C82.2,41.5,84.9,38.8,88.2,38.8z"/>
<polygon id="Object" display="none" points="6,28.1 21.2,24.5 16.7,39.4 "/>
<rect x="51.3" y="2" transform="matrix(0.9603 -0.279 0.279 0.9603 0.4262 15.8113)" fill="#FFFFFF" stroke="#000000" stroke-width="4" stroke-miterlimit="10" width="8.9" height="8.8"/>
<circle fill="#FFFFFF" stroke="#000000" stroke-width="4" stroke-miterlimit="10" cx="88.2" cy="44.7" r="5.4"/>
<circle fill="#FFFFFF" stroke="#000000" stroke-width="4" stroke-miterlimit="10" cx="49" cy="38.2" r="12.2"/>
<polygon fill="#FFFFFF" stroke="#000000" stroke-width="4" stroke-miterlimit="10" points="21.2,24.5 16.7,39.4 6,28.1 "/>
<path fill="#FFFFFF" stroke="#000000" stroke-width="4" stroke-miterlimit="10" d="M84.7,95.8l6.4-20.6l0.3-0.7c0,0,0.5-5.3-4.2-6.8
	s-7.1,2.7-7.5,3.9s-1.1,3.6-1.1,3.6L73.1,60c0,0-1.6-4-5.6-4s-34.6,0-34.6,0s-3.4,0.2-5.1,2.8s-8.3,13.3-8.3,13.3l-1.4-10.9
	c0,0-1.1-5.7-6.7-5.2s-5.2,6.7-5.2,6.7l3.5,26c0,0,0.6,4.1,4.7,5.1s6.4-2.7,6.4-2.7L30,76.3V96h36.9V78.1L73.4,96c0,0,1.2,3.7,5.6,4
	S84.7,95.8,84.7,95.8z"/>
</svg>
